<?xml version="1.0" encoding="UTF-8"?> <svg xmlns="http://www.w3.org/2000/svg" width="550pt" height="150pt" viewBox="0 0 550 150" version="1.1"><g id="#000000fe"><path fill="#000000" opacity="1.00" d=" M 272.46 4.76 C 288.93 1.71 306.46 6.19 319.84 16.14 C 332.27 25.21 341.24 38.71 345.39 53.48 C 349.80 69.41 348.84 86.89 342.26 102.09 C 336.01 116.72 324.64 129.22 310.36 136.31 C 299.21 141.88 286.36 143.96 274.04 142.12 C 260.75 140.22 248.27 133.71 238.77 124.27 C 226.69 112.38 219.23 95.97 218.07 79.07 C 216.59 61.51 221.77 43.45 232.52 29.47 C 242.18 16.70 256.62 7.46 272.46 4.76 M 275.06 13.62 C 263.32 16.94 254.66 26.78 249.31 37.34 C 240.71 54.60 239.10 74.98 243.55 93.65 C 246.83 106.92 253.57 120.01 264.89 128.12 C 271.96 133.28 281.15 135.24 289.72 133.50 L 289.63 133.49 L 290.30 133.59 C 290.67 133.01 291.41 131.87 291.78 131.30 L 290.83 132.86 C 301.52 130.16 309.40 121.52 315.02 112.47 L 314.18 112.27 L 314.99 112.46 C 317.44 107.78 319.61 102.96 321.20 97.92 C 322.29 93.08 324.42 88.07 323.69 83.10 L 323.20 83.18 C 325.49 79.27 324.75 74.37 324.63 70.06 L 323.96 69.83 L 324.41 69.20 C 324.77 62.36 323.02 55.42 321.20 48.82 C 317.49 36.74 310.71 25.03 300.03 17.88 C 292.82 13.03 283.47 11.04 275.06 13.62 Z"></path><path fill="#000000" opacity="1.00" d=" M 74.20 31.16 C 79.41 28.76 86.04 33.28 85.80 38.97 C 85.87 53.97 85.80 68.97 85.82 83.98 C 85.87 88.64 86.73 93.57 89.69 97.33 C 92.35 100.80 96.69 102.60 100.96 102.97 C 106.69 103.61 113.19 102.72 117.42 98.43 C 121.12 94.64 122.14 89.15 122.20 84.03 C 122.26 69.02 122.15 54.00 122.25 38.99 C 122.14 34.39 126.40 30.30 130.98 30.55 C 135.40 30.57 139.31 34.57 139.23 39.00 C 139.32 52.99 139.26 66.98 139.26 80.97 C 139.09 90.34 137.55 100.65 130.67 107.61 C 123.81 114.67 113.38 116.21 103.98 116.32 C 94.84 116.19 84.77 114.75 77.92 108.11 C 70.93 101.44 69.08 91.30 68.82 82.04 C 68.79 67.70 68.78 53.35 68.82 39.01 C 68.75 35.58 71.07 32.41 74.20 31.16 Z"></path><path fill="#000000" opacity="1.00" d=" M 351.86 38.93 C 351.87 34.59 355.66 30.68 359.99 30.55 C 364.56 30.24 369.14 34.32 368.82 39.02 C 368.90 59.69 368.73 80.37 368.90 101.05 C 380.95 101.28 393.00 101.03 405.05 101.17 C 408.63 101.06 411.85 104.44 411.71 107.99 C 411.81 111.51 408.61 114.93 405.03 114.84 C 391.02 114.94 377.00 114.82 362.99 114.89 C 360.02 114.94 356.69 114.73 354.47 112.48 C 352.10 109.99 351.82 106.33 351.80 103.07 C 351.87 81.69 351.76 60.31 351.86 38.93 Z"></path><path fill="#000000" opacity="1.00" d=" M 414.25 31.32 C 419.53 28.56 426.52 33.11 426.22 39.04 C 426.29 53.36 426.23 67.69 426.24 82.02 C 426.13 87.65 426.77 93.91 430.86 98.17 C 434.17 101.87 439.32 103.06 444.09 103.17 C 448.49 103.15 453.18 102.37 456.65 99.46 C 460.89 96.03 462.50 90.35 462.60 85.09 C 462.66 69.73 462.57 54.37 462.63 39.02 C 462.49 34.55 466.52 30.56 470.95 30.55 C 475.50 30.30 479.75 34.40 479.63 38.97 C 479.67 53.30 479.65 67.63 479.63 81.97 C 479.47 91.14 477.59 101.11 470.87 107.85 C 464.10 114.54 454.11 116.15 444.97 116.31 C 435.53 116.28 425.15 114.80 418.08 107.96 C 411.01 100.95 409.35 90.50 409.22 80.97 C 409.22 66.96 409.16 52.95 409.25 38.95 C 409.16 35.67 411.32 32.66 414.25 31.32 Z"></path><path fill="#000000" opacity="1.00" d=" M 487.88 32.82 C 491.43 29.20 497.75 30.30 500.44 34.41 C 506.28 43.00 511.45 52.04 517.37 60.58 C 522.27 52.76 527.39 45.08 532.37 37.32 C 534.06 34.78 535.94 32.00 538.96 30.98 C 542.57 29.76 547.61 31.81 548.05 35.94 C 548.37 40.24 545.98 44.18 543.65 47.61 C 538.09 55.46 532.91 63.57 527.23 71.32 C 532.49 80.06 538.35 88.43 543.84 97.03 C 546.15 100.78 549.41 104.38 549.57 109.00 C 549.98 114.10 543.71 117.99 539.24 115.76 C 536.56 114.59 534.75 112.17 533.22 109.79 C 527.78 101.30 522.22 92.90 516.79 84.40 C 510.76 92.94 505.17 101.78 499.29 110.41 C 497.30 113.22 494.56 115.96 490.97 116.34 C 487.31 116.74 483.71 113.67 483.56 109.98 C 483.16 106.55 484.62 103.26 486.55 100.51 C 493.15 90.96 499.66 81.35 506.30 71.83 C 500.53 62.64 494.42 53.65 488.68 44.43 C 486.70 41.09 484.80 36.08 487.88 32.82 Z"></path><path fill="#000000" opacity="1.00" d=" M 2.90 41.02 C 2.54 36.49 6.34 31.95 11.01 32.15 C 27.01 32.10 43.01 32.13 59.00 32.13 C 62.77 31.71 66.15 35.31 65.73 39.01 C 65.51 42.31 62.43 45.13 59.08 44.78 C 45.94 44.83 32.79 44.78 19.64 44.80 C 19.62 51.70 19.64 58.59 19.63 65.49 C 31.76 65.49 43.89 65.45 56.02 65.49 C 59.51 65.20 62.71 68.54 62.42 72.00 C 62.38 75.27 59.34 78.00 56.10 77.87 C 43.95 77.98 31.80 77.87 19.65 77.91 C 19.57 85.78 19.73 93.64 19.55 101.51 C 33.34 101.85 47.14 101.42 60.93 101.71 C 65.47 101.82 68.67 107.38 66.32 111.32 C 65.15 113.64 62.61 115.11 60.00 114.87 C 43.65 114.86 27.29 114.91 10.94 114.85 C 6.33 114.96 2.56 110.51 2.90 106.01 C 2.86 84.35 2.87 62.68 2.90 41.02 Z"></path><path fill="#000000" opacity="1.00" d=" M 144.66 41.03 C 144.54 36.49 148.23 31.94 152.99 32.16 C 164.34 32.08 175.69 32.12 187.05 32.15 C 194.59 32.27 202.83 34.33 207.78 40.45 C 213.40 46.82 214.12 56.38 211.22 64.10 C 208.04 71.94 199.49 75.28 191.93 77.37 C 201.24 83.43 207.09 93.26 212.02 102.94 C 213.32 105.65 215.19 108.75 213.82 111.81 C 211.42 117.05 203.10 118.13 199.62 113.43 C 193.09 105.31 188.66 95.79 182.78 87.24 C 180.06 83.26 175.78 80.17 170.92 79.61 C 167.79 79.30 164.64 79.46 161.50 79.44 C 161.50 88.97 161.55 98.49 161.49 108.01 C 161.64 111.83 158.63 115.24 154.99 116.08 C 150.05 117.39 144.60 113.14 144.65 108.01 C 144.60 85.69 144.59 63.36 144.66 41.03 M 161.50 44.45 C 161.56 52.09 161.42 59.74 161.58 67.38 C 168.39 67.24 175.21 67.47 182.03 67.27 C 186.83 67.03 192.40 65.43 194.67 60.76 C 196.50 56.52 195.84 50.91 192.24 47.77 C 189.15 45.14 184.94 44.42 181.00 44.46 C 174.50 44.43 168.00 44.48 161.50 44.45 Z"></path></g><g id="#e53037ff"><path fill="#e53037" opacity="1.00" d=" M 282.49 51.13 C 289.67 59.79 296.65 68.62 303.90 77.22 C 310.57 74.72 317.24 72.21 323.96 69.83 L 324.63 70.06 C 324.75 74.37 325.49 79.27 323.20 83.18 C 320.97 86.44 318.86 89.78 316.64 93.05 C 318.16 94.67 319.68 96.29 321.20 97.92 C 319.61 102.96 317.44 107.78 314.99 112.46 L 314.18 112.27 C 311.30 111.56 308.42 110.86 305.54 110.17 C 300.88 117.16 296.34 124.24 291.78 131.30 C 291.41 131.87 290.67 133.01 290.30 133.59 L 289.63 133.49 C 288.65 133.34 287.68 133.21 286.71 133.10 C 286.79 123.65 286.19 114.21 285.42 104.80 C 274.84 102.00 264.31 99.05 253.75 96.18 C 263.92 92.02 274.35 88.56 284.54 84.45 C 283.47 73.37 283.47 62.22 282.49 51.13 Z"></path></g></svg> 