<?xml version="1.0" encoding="UTF-8"?> <svg xmlns="http://www.w3.org/2000/svg" id="Layer_1" data-name="Layer 1" viewBox="0 0 200 200"><defs><style>.cls-1{fill:#154f97;stroke:#0c1523;stroke-width:3px;}</style></defs><path id="svg_5" data-name="svg 5" class="cls-1" d="M100,53.39A46.61,46.61,0,1,0,146.6,100,46.59,46.59,0,0,0,100,53.39Zm0,81.38A34.77,34.77,0,1,1,134.76,100,34.83,34.83,0,0,1,100,134.77Zm0-84.5a5.92,5.92,0,0,0,5.92-5.92V15.63a5.92,5.92,0,1,0-11.84,0V44.35A5.92,5.92,0,0,0,100,50.27Zm19,3.78a6,6,0,0,0,2.26.46,5.94,5.94,0,0,0,5.48-3.66l11-26.54a5.92,5.92,0,1,0-10.94-4.53l-11,26.54A5.92,5.92,0,0,0,119,54.05Zm16.13,10.78a5.9,5.9,0,0,0,8.37,0l20.31-20.32a5.92,5.92,0,1,0-8.38-8.37l-20.3,20.31a5.93,5.93,0,0,0,0,8.38ZM146,81a5.89,5.89,0,0,0,7.73,3.19l26.53-11a5.92,5.92,0,1,0-4.54-10.93l-26.53,11A5.94,5.94,0,0,0,146,81Zm38.42,13.09H155.65a5.92,5.92,0,0,0,0,11.84h28.73a5.92,5.92,0,0,0,0-11.83Zm-4.13,32.72-26.54-11a5.92,5.92,0,1,0-4.53,10.94l26.53,11a6.1,6.1,0,0,0,2.27.44,5.92,5.92,0,0,0,2.27-11.39Zm-36.67,8.37a5.92,5.92,0,0,0-8.37,8.37l20.33,20.3a5.9,5.9,0,0,0,8.37,0,5.94,5.94,0,0,0,0-8.38Zm-16.76,14a5.92,5.92,0,0,0-10.94,4.54l11,26.52a5.94,5.94,0,0,0,5.48,3.66,6,6,0,0,0,2.27-.45,5.92,5.92,0,0,0,3.19-7.75Zm-26.74.61a5.92,5.92,0,0,0-5.93,5.92l0,28.72a5.92,5.92,0,0,0,11.83,0l0-28.72a5.92,5.92,0,0,0-5.91-5.91ZM81,146a5.94,5.94,0,0,0-7.74,3.22l-11,26.54a5.94,5.94,0,0,0,3.21,7.74,6,6,0,0,0,2.27.45,5.94,5.94,0,0,0,5.47-3.67l11-26.55A5.92,5.92,0,0,0,81,146ZM64.89,135.22a5.91,5.91,0,0,0-8.38,0L36.23,155.55a5.92,5.92,0,1,0,8.38,8.37L64.9,143.59A5.93,5.93,0,0,0,64.89,135.22Zm-10.8-16.11a5.93,5.93,0,0,0-7.74-3.2l-26.52,11a5.92,5.92,0,0,0,2.28,11.39,5.84,5.84,0,0,0,2.26-.45l26.52-11a5.94,5.94,0,0,0,3.2-7.74Zm-3.83-19a5.9,5.9,0,0,0-5.92-5.91l-28.72,0a5.92,5.92,0,0,0,0,11.84l28.73,0A5.9,5.9,0,0,0,50.26,100.09ZM19.74,73.31l26.55,11a5.84,5.84,0,0,0,2.26.45A5.92,5.92,0,0,0,50.8,73.33l-26.54-11a5.92,5.92,0,1,0-4.52,10.94ZM56.4,64.92a5.92,5.92,0,0,0,8.35-8.4L44.42,36.25a5.92,5.92,0,0,0-8.36,8.39L56.4,64.92Zm16.74-14a5.92,5.92,0,0,0,10.93-4.56L73,19.84A5.92,5.92,0,0,0,62.1,24.39Z"></path></svg> 